<?xml version="1.0"?>
<svg xmlns="http://www.w3.org/2000/svg" viewBox="0 0 48 48" width="512" height="512"><g id="Pray_open_hand" data-name="Pray open hand"><path d="M20.83,11.63,19.3,20.29a1,1,0,0,1-2-.34L19.7,6.51a2.16,2.16,0,0,0-2.35-.41c-.42,2.37-.09.49-1.84,10.44a1,1,0,0,1-2-.34c1.83-10.41,1.34-7.6,2.23-12.61a2.15,2.15,0,0,0-2.37-.4l-1.75,10a1,1,0,0,1-2-.34l1.18-6.79A2.19,2.19,0,0,0,7.23,7.28L6,14.36c2-.8,5,2.55,3.67,5.94L9,21.89a12.39,12.39,0,0,1,7.51,6.33,1,1,0,0,1-1.78.9,10.44,10.44,0,0,0-7.27-5.56,1,1,0,0,1-.74-1.35c1-2.65,1.25-3,1.25-3.67,0-1.33-1-2.79-2.33-2.41-.6.18-.5.2-3.47,3.17A8.37,8.37,0,0,0,0,24.77c0,3.29,5.48,6.57,5.48,9.86,0,1.78-1.61,6.45-3.09,10.37H17.68C18.87,34.74,23,35,23,28.43V13.82A2.2,2.2,0,0,0,20.83,11.63Z"/><path d="M48,24.77c0-3.86-2.46-5.74-5-8.23a1.55,1.55,0,0,0-.71-.41c-1.58-.47-2.79,1.72-2.13,3.44,1.11,2.79,1.29,2.95,1,3.49-.49.91-2,.24-5,2.43-3.11,2.39-2.6,4.18-3.89,4.18a1,1,0,0,1-.89-1.45A12.39,12.39,0,0,1,39,21.89a8.4,8.4,0,0,1-1-3.35c0-2.3,2-5,4-4.18L40.77,7.28a2.19,2.19,0,0,0-3.64-1.22l1.18,6.79a1,1,0,1,1-2,.34l-1.75-10a2.16,2.16,0,0,0-2.37.4c.89,5,.38,2.12,2.23,12.61a1,1,0,0,1-2,.34C30.71,6.4,31.07,8.47,30.65,6.1a2.16,2.16,0,0,0-2.35.41L30.67,20a1,1,0,0,1-2,.34l-1.53-8.66A2.2,2.2,0,0,0,25,13.82c0,15-.57,17.38,1.86,20.91A23.07,23.07,0,0,1,30.32,45H45.61c-1.48-3.92-3.09-8.59-3.09-10.37C42.52,31.34,48,28.06,48,24.77Z"/></g></svg>
