<svg id="solid" enable-background="new 0 0 100 100" height="512" viewBox="0 0 100 100" width="512" xmlns="http://www.w3.org/2000/svg"><path d="m12.89 65.1c.323.275.701.476 1.11.59v4.05l-3.2 5.75-2.78-49.21.66-1 3.15 37.77c.065.798.447 1.536 1.06 2.05z"/><path d="m49.02 72.23c-9.68-5.25-28.24-3.82-33.02-3.34v-3.17c14.47-1.22 30.43-.13 33.02 6.51z"/><path d="m84 65.72v3.17c-4.78-.48-23.34-1.91-33.02 3.34 2.59-6.64 18.55-7.73 33.02-6.51z"/><path d="m91.98 26.28-2.78 49.21-3.2-5.75v-4.05c.409-.114.787-.315 1.11-.59.613-.514.995-1.252 1.06-2.05l3.15-37.77z"/><path d="m15.622 70.939-3.658 6.585c5.737-1.276 21.44-4.506 33.676-4.63-10.063-3.794-26.94-2.274-30.018-1.955z"/><path d="m54.361 72.894c12.237.123 27.938 3.353 33.675 4.629l-3.658-6.584c-3.078-.32-19.956-1.839-30.017 1.955z"/><path d="m94.9 24h-2.032l.964 1.445c.12.181.179.395.166.612l-3 53c0 .032-.021.058-.025.09-.012.082-.035.161-.067.237-.021.051-.046.101-.075.148-.045.066-.098.127-.157.181-.029.028-.045.066-.077.09s-.048.022-.071.036-.024.026-.041.035c-.037.018-.076.034-.115.046-.029.012-.056.025-.085.034-.092.029-.188.045-.285.046-.078 0-.157-.009-.233-.027-.248-.061-25.031-5.956-39.7-4.975-.009 0-.017 0-.026 0s-.027.002-.041.002c-.013 0-.025 0-.038-.006s-.018 0-.027 0c-14.665-.98-39.452 4.914-39.7 4.975-.077.019-.156.03-.235.031-.096-.002-.192-.017-.284-.046-.029-.009-.056-.022-.085-.034-.039-.012-.078-.028-.115-.046-.017-.009-.025-.025-.041-.035s-.049-.02-.071-.036-.048-.062-.077-.09c-.059-.054-.112-.115-.157-.181-.029-.047-.054-.097-.075-.148-.032-.076-.055-.155-.067-.237 0-.032-.023-.058-.025-.09l-3-53c-.013-.217.046-.431.166-.612l.963-1.445h-2.032c-1.105-.001-2.001.893-2.003 1.997 0 .034.001.068.003.103l2.78 54.675c.055 1.103.993 1.953 2.096 1.899.075-.004.15-.012.224-.024l41.8-6.65 41.8 6.65c1.091.174 2.116-.57 2.29-1.66.011-.07.019-.141.022-.213l2.781-54.677c.055-1.103-.794-2.042-1.897-2.098-.032-.001-.064-.002-.096-.002z"/><path d="m89.92 17.87-.51 6.13-3.24 38.89c-.02.265-.147.51-.35.68-.202.173-.465.256-.73.23-8.54-.78-27.41-1.64-34.09 4.91-.368.355-.703.744-1 1.16-.297-.416-.632-.805-1-1.16-4.45-4.37-14.31-5.44-22.92-5.44-4.32 0-8.32.27-11.17.53-.265.028-.529-.056-.73-.23-.203-.17-.33-.415-.35-.68l-3.24-38.89-.51-6.13c-.034-.297.073-.594.29-.8 3.698-3.672 8.763-5.63 13.97-5.4 10.13.49 19.62 8.73 23.3 12.33.63.63 1.1 1.11 1.36 1.39.15.17.24.26.25.27.365.414.997.454 1.411.089.031-.028.061-.057.089-.089.01-.01.1-.1.25-.27.26-.28.73-.77 1.37-1.39 3.68-3.61 13.14-11.84 23.29-12.33 5.206-.229 10.271 1.729 13.97 5.4.217.206.324.503.29.8z"/></svg>