<svg id="Layer_1" enable-background="new 0 0 512 512" viewBox="0 0 512 512" xmlns="http://www.w3.org/2000/svg"><path d="m327.57 121.05h-135.15l-.31 11.82c.48 36.54 30.33 66.02 66.87 66.02v-.03c37.7 0 68.74-31.07 68.74-68.74zm-67.66-83.33c-36.94 0-71.12 29.2-71.12 66.9v6.43h142.27l.03-9.18c-.48-36.71-33.05-64.18-70.1-64.18h-1.08zm-66.11 300.44c14.03-3.46 33.9-4.82 66.3-2.3 29.4 2.3 23.22 39.2-6.6 39.32h-.85l25.06 6.35c.82.2 2.64.4 5.05.6 8.73-5.56 18.4-13.38 27.61-22.59 24.89-24.89 55.87-70.67 25.26-101.28v-.03c-19.56-19.56-51-19.39-70.58.2-2.1 2.07-5.53 1.9-7.4-.37-18.68-22.54-52.78-24.26-73.59-3.46-24.47 24.46-8.77 59.07 9.74 83.56zm-57.06 27.35c22.11-7.46 29.28-17.38 46.97-24.21-20.47-28.26-34.47-66.05-6.72-93.8 23.3-23.3 61.26-23.27 84.53 0l.28.28c23.58-19.9 58.71-18.77 80.87 3.37 18.03 18 19.33 41.33 9.78 65.14-10.01 24.89-31.66 49.69-53.21 66.33 6.75.03 13.35-.17 14.66-.79l59.13-27.89c3.43-1.62 6.86-2.66 10.15-3.2v-80.19c0-21.51-8.62-41.02-22.56-55.22-13.61-13.86-32.29-22.71-52.98-23.53-1.22.4-18.88 17.06-48.67 17.06v-.03c-17.49 0-33.62-5.84-46.54-15.7-20.75 1.36-39.49 10.72-53.15 25-13.97 14.6-22.62 34.36-22.62 55.93v89.09c0 .81.03 1.6.08 2.36zm-71.49-201.06c-2.3-1.5-2.92-4.59-1.42-6.89s4.59-2.95 6.89-1.45l16.3 10.77c2.3 1.5 2.95 4.59 1.42 6.89-1.5 2.3-4.59 2.92-6.89 1.42zm74.1-56.29c-1.25-2.47-.23-5.47 2.21-6.69 2.47-1.22 5.47-.23 6.69 2.24l8.73 17.43c1.25 2.47.23 5.47-2.21 6.69-2.47 1.22-5.47.23-6.69-2.24zm-66.33 237.82c-2.44 1.22-5.44.23-6.66-2.24-1.25-2.47-.23-5.44 2.21-6.66l17.46-8.76c2.47-1.22 5.44-.23 6.69 2.24 1.22 2.47.23 5.44-2.24 6.69zm-30.87-88.49c-6.58-.37-5.98-10.35.57-9.95l19.5 1.16c6.55.4 5.95 10.35-.6 9.95zm47.99 114.54-22.34 12.9c-1.22.71-1.64 2.32-.96 3.54l50.8 87.93c.71 1.25 2.32 1.67 3.54.96l22.31-12.9c1.25-.71 1.67-2.35.96-3.57l-46.74-80.62c-.23-.4-.4-.79-.51-1.22l-3.51-6.05c-.71-1.22-2.33-1.67-3.55-.97zm20.1 9.7 35.09 60.52 135.55 3.26c16.75-4.99 63.69-37.9 93.94-59.1 7.54-5.27 14.03-9.84 18.91-13.15 13.38-9.07.23-13.32-4.93-13.01-4.08.23-6.83.51-11.51 2.72l-59.13 27.92c-2.66 1.25-10.29 1.73-18.43 1.73-4.34 0-20.1-.31-24.46-1.39l-63.24-16.04c-5.61-1.42-4.65-9.81 1.22-9.81l40.25-.17c16.3-.06 22.93-18.06 5.87-19.36-103.32-8.06-71.18 24.63-149.13 35.88zm332.65-225.61c2.3-1.5 5.39-.85 6.89 1.45s.88 5.39-1.42 6.89l-16.3 10.74c-2.3 1.5-5.39.88-6.89-1.42-1.53-2.3-.88-5.39 1.42-6.89zm-77.53-52.41c1.22-2.47 4.22-3.46 6.66-2.24 2.47 1.22 3.46 4.22 2.24 6.69l-8.73 17.43c-1.25 2.47-4.22 3.46-6.69 2.24s-3.46-4.22-2.21-6.69zm79.65 233.37c2.47 1.22 3.46 4.2 2.24 6.66-1.22 2.47-4.22 3.46-6.69 2.24l-17.43-8.73c-2.47-1.25-3.46-4.22-2.24-6.69s4.22-3.46 6.69-2.24zm25.85-89.54c6.58-.4 7.14 9.58.6 9.95l-19.47 1.16c-6.55.4-7.14-9.55-.6-9.95z"/></svg>