<?xml version="1.0" encoding="UTF-8"?>
<svg xmlns="http://www.w3.org/2000/svg" viewBox="0 0 64 64" width="512" height="512"><g id="Layer_14" data-name="Layer 14"><path d="M22.461,21A28.433,28.433,0,0,0,13,19.017V46h.7A19.716,19.716,0,0,1,31,56.354v-28.4A10.023,10.023,0,0,1,22.461,21Zm4.832,26.708-.758-.758A13.393,13.393,0,0,0,17,43V41a15.379,15.379,0,0,1,10.949,4.536l.758.756Zm0-6-.758-.758A13.393,13.393,0,0,0,17,37V35a15.379,15.379,0,0,1,10.949,4.536l.758.756Zm1.414-7.416-1.414,1.416-.758-.758A13.393,13.393,0,0,0,17,31V29a15.379,15.379,0,0,1,10.949,4.536Z"/><path d="M39.508,20.789A9,9,0,0,1,26,13c0-.1,0-.2,0-.292a8,8,0,1,0,13.5,8.081Z"/><path d="M13.7,48H12a1,1,0,0,1-1-1V23H8V51h4.793a24.464,24.464,0,0,1,16.514,6.429A17.706,17.706,0,0,0,13.7,48Z"/><path d="M50.3,46H51V19.017A28.438,28.438,0,0,0,41.539,21,9.935,9.935,0,0,1,33,27.951v28.4A19.716,19.716,0,0,1,50.3,46ZM36.051,33.535A15.382,15.382,0,0,1,47,29v2a13.393,13.393,0,0,0-9.535,3.95l-.758.758-1.414-1.416Zm0,6A15.382,15.382,0,0,1,47,35v2a13.393,13.393,0,0,0-9.535,3.95l-.758.758-1.414-1.416Zm0,6A15.382,15.382,0,0,1,47,41v2a13.393,13.393,0,0,0-9.535,3.95l-.758.758-1.414-1.416Z"/><path d="M53,23V47a1,1,0,0,1-1,1H50.3a17.706,17.706,0,0,0-15.6,9.429A24.464,24.464,0,0,1,51.207,51H56V23Z"/><polygon points="37 20 39 15 42 13 39 12 36.999 7 35 12 32 13 35 15 37 20"/></g></svg>
