<svg id="Capa_1" enable-background="new 0 0 512 512" height="512" viewBox="0 0 512 512" width="512" xmlns="http://www.w3.org/2000/svg"><g><g><path d="m408.306 286.998c0-4.132-3.349-7.481-7.481-7.481h-289.65c-4.132 0-7.481 3.349-7.481 7.481s3.349 7.481 7.481 7.481h289.649c4.132 0 7.482-3.35 7.482-7.481z"/><circle cx="221.557" cy="332.759" r="7.481"/><circle cx="263.479" cy="332.759" r="7.481"/><circle cx="305.401" cy="332.759" r="7.481"/><circle cx="347.323" cy="332.759" r="7.481"/><circle cx="389.245" cy="332.759" r="7.481"/><circle cx="221.557" cy="372.849" r="7.481"/><circle cx="263.479" cy="372.849" r="7.481"/><circle cx="305.401" cy="372.849" r="7.481"/><circle cx="347.323" cy="372.849" r="7.481"/><circle cx="389.245" cy="372.849" r="7.481"/><circle cx="221.557" cy="412.938" r="7.481"/><circle cx="263.479" cy="412.938" r="7.481"/><circle cx="305.401" cy="412.938" r="7.481"/><circle cx="347.323" cy="412.938" r="7.481"/><circle cx="389.245" cy="412.938" r="7.481"/><path d="m221.557 445.547c-4.132 0-7.481 3.349-7.481 7.481s3.349 7.481 7.481 7.481 7.481-3.349 7.481-7.481-3.35-7.481-7.481-7.481z"/><path d="m263.479 445.547c-4.132 0-7.481 3.349-7.481 7.481s3.349 7.481 7.481 7.481 7.481-3.349 7.481-7.481-3.35-7.481-7.481-7.481z"/><path d="m115.274 424.56c-4.132 0-7.481 3.349-7.481 7.481v20.499c0 6.748 5.49 12.239 12.239 12.239h54.845c6.748 0 12.238-5.49 12.238-12.239v-122.504c0-6.748-5.49-12.238-12.238-12.238h-54.845c-6.748 0-12.239 5.49-12.239 12.238v66.979c0 4.132 3.349 7.481 7.481 7.481s7.481-3.349 7.481-7.481v-64.256h49.398v117.058h-49.398v-17.776c0-4.132-3.349-7.481-7.481-7.481z"/><path d="m327.634 118.794c-1.301-4.005-4.698-6.869-8.865-7.475l-15.72-2.285-7.029-14.244c-1.863-3.776-5.637-6.121-9.847-6.121s-7.984 2.345-9.847 6.121l-7.029 14.244-15.721 2.285c-4.167.606-7.563 3.47-8.864 7.475-1.301 4.004-.236 8.318 2.779 11.256l11.375 11.088-2.685 15.656c-.712 4.15.962 8.266 4.369 10.741 3.406 2.474 7.837 2.794 11.564.836l14.06-7.392 14.06 7.391c1.621.852 3.375 1.274 5.121 1.274 2.267 0 4.519-.711 6.443-2.109 3.407-2.475 5.081-6.591 4.369-10.741l-2.686-15.656 11.375-11.088c3.014-2.938 4.079-7.252 2.778-11.256zm-26.097 13.092c-2.588 2.524-3.768 6.158-3.157 9.719l1.676 9.77-8.773-4.612c-1.6-.842-3.355-1.262-5.11-1.262s-3.51.42-5.11 1.261l-8.774 4.613 1.676-9.772c.609-3.561-.571-7.194-3.159-9.717l-7.098-6.919 9.809-1.425c3.577-.52 6.669-2.765 8.269-6.007l4.386-8.889 4.387 8.89c1.6 3.241 4.691 5.487 8.268 6.006l9.809 1.426z"/><path d="m444.897 155.07c4.132 0 7.481-3.349 7.481-7.481v-81.065c0-15.116-12.298-27.413-27.413-27.413h-16.659v-15.993c0-12.748-10.371-23.118-23.118-23.118s-23.118 10.37-23.118 23.118v15.992h-212.14v-15.992c0-12.748-10.371-23.118-23.118-23.118s-23.118 10.37-23.118 23.118v15.992h-16.658c-15.116 0-27.413 12.298-27.413 27.413v418.063c-.001 15.116 12.297 27.414 27.413 27.414h337.929c15.116 0 27.413-12.298 27.413-27.413v-302.387c0-4.131-3.349-7.481-7.481-7.481s-7.481 3.349-7.481 7.481v302.386c0 6.866-5.586 12.452-12.452 12.452h-337.928c-6.866 0-12.452-5.586-12.452-12.452v-418.062c0-6.866 5.586-12.452 12.452-12.452h16.659v9.777c0 12.747 10.37 23.118 23.118 23.118s23.118-10.371 23.118-23.118v-9.777h212.139v9.777c0 12.747 10.371 23.118 23.118 23.118s23.118-10.371 23.118-23.118v-9.777h16.659c6.866 0 12.452 5.586 12.452 12.452v81.065c-.001 4.131 3.348 7.481 7.48 7.481zm-309.928-91.221c0 4.497-3.659 8.156-8.156 8.156s-8.156-3.659-8.156-8.156v-40.731c0-4.497 3.659-8.156 8.156-8.156s8.156 3.659 8.156 8.156zm258.375 0c0 4.497-3.659 8.156-8.156 8.156s-8.156-3.659-8.156-8.156v-40.731c0-4.497 3.659-8.156 8.156-8.156s8.156 3.659 8.156 8.156z"/><path d="m222.268 80.913c-3.532-2.867-8.464-3.13-12.274-.651-27.776 18.064-44.347 48.607-44.328 81.703.015 26.115 10.109 50.577 28.423 68.881 18.314 18.303 42.782 28.383 68.898 28.383 33.08 0 63.603-16.573 81.648-44.333 2.477-3.812 2.214-8.744-.656-12.274-2.883-3.548-7.682-4.818-11.943-3.164-9.647 3.748-19.827 5.62-30.31 5.551-44.835-.275-81.548-36.974-81.839-81.809-.068-10.473 1.799-20.682 5.548-30.343 1.654-4.262.381-9.062-3.167-11.944zm109.822 125.828c0 .001-.002.003-.003.005.001-.001.002-.003.003-.005zm-30.455 13.228c7.482.027 14.859-.747 22.046-2.365-15.472 16.893-37.329 26.663-60.694 26.663-22.121 0-42.833-8.525-58.321-24.004s-24.025-36.186-24.038-58.307c-.013-23.378 9.758-45.254 26.661-60.74-1.619 7.199-2.411 14.583-2.363 22.079.343 52.981 43.727 96.349 96.709 96.674z"/></g></g></svg>