<svg enable-background="new 0 0 512 512" height="512" viewBox="0 0 512 512" width="512" xmlns="http://www.w3.org/2000/svg"><g id="_x31_0_qibla"><g><path d="m450.904 499.961h-14.797v-217.656c0-9.6-5.675-18.35-14.478-22.328l-11.774-5.304v-65.499l11.35-11.508c1.008-1.007 1.538-2.333 1.538-3.712v-17.661c0-2.969-2.387-5.303-5.304-5.303h-10.872v-54.413l9.334-9.44c.955-.954 1.538-2.333 1.538-3.712v-12.146c0-2.916-2.387-5.303-5.303-5.303h-6.788l-15.753-60.566c-.636-2.333-2.758-3.978-5.144-3.978-2.44 0-4.508 1.644-5.145 3.978l-15.804 60.566h-6.736c-2.917 0-5.303 2.388-5.303 5.303v12.145c0 1.379.531 2.758 1.538 3.712l9.281 9.44v54.414h-10.819c-2.97 0-5.303 2.335-5.303 5.303v17.661c0 1.379.531 2.705 1.485 3.712l11.402 11.508v42.693l-93.023-41.738c-6.364-2.864-13.683-2.864-20.047 0l-93.023 41.738v-42.693l11.403-11.508c.955-1.007 1.485-2.333 1.485-3.712v-17.661c0-2.969-2.334-5.303-5.303-5.303h-10.819v-54.413l9.281-9.44c1.008-.954 1.538-2.333 1.538-3.712v-12.146c0-2.916-2.387-5.303-5.303-5.303h-6.735l-15.807-60.566c-.583-2.333-2.705-3.978-5.091-3.978-2.44 0-4.561 1.644-5.145 3.978l-15.804 60.566h-6.789c-2.917 0-5.303 2.388-5.303 5.303v12.145c0 1.379.584 2.758 1.538 3.712l9.334 9.44v54.414h-10.873c-2.917 0-5.303 2.335-5.303 5.303v17.661c0 1.379.531 2.705 1.538 3.712l11.349 11.508v65.499l-11.774 5.304c-8.804 3.978-14.478 12.728-14.478 22.328v217.656h-14.797c-2.97 0-5.304 2.333-5.304 5.303 0 2.917 2.334 5.303 5.304 5.303h389.807c2.97 0 5.303-2.386 5.303-5.303.001-2.97-2.332-5.303-5.302-5.303zm-323.355-472.224 9.971 38.238h-19.941zm-22.381 53.513v-4.668h44.762v4.668l-7.743 7.849h-29.275zm-5.303 90.531v-10.184h55.369v10.184l-9.811 9.917h-35.746zm150.832 328.18h-164.197v-134.126c58.02-25.987 160.961-72.445 164.196-73.454v207.58zm0-257.114c-6.576 1.273.902-.954-164.196 72.817v-33.359c0-5.463 3.235-10.395 8.167-12.622 27.79-12.464 153.801-69.105 156.029-70.007zm133.754-215.11 9.971 38.238h-19.942zm-22.381 53.513v-4.668h44.762v4.668l-7.743 7.849h-29.275zm-5.304 90.531v-10.184h55.369v10.184l-9.811 9.917h-35.746zm68.734 328.18h-71.809v-56.906c0-5.834-3.447-11.138-8.804-13.471l-39.193-17.236c-9.758-4.243-20.683 2.864-20.683 13.524v74.09h-23.707v-207.58c3.925 1.168-12.463-5.674 164.196 73.454zm0-184.297c-166.689-74.461-157.62-71.544-164.196-72.817v-43.171c2.599 1.062 118.374 53.089 156.029 70.007 4.932 2.227 8.167 7.159 8.167 12.622z"/><path d="m326.225 359.366 4.998 2.245c2.641 1.194 5.798.032 7.01-2.665 1.202-2.672.008-5.811-2.665-7.01l-4.998-2.245c-2.672-1.209-5.811-.01-7.01 2.665-1.202 2.673-.008 5.811 2.665 7.01z"/><path d="m351.22 370.592 4.998 2.243c2.665 1.195 5.807.013 7.01-2.67 1.199-2.672.003-5.808-2.67-7.01l-4.998-2.243c-2.665-1.199-5.811-.003-7.01 2.67s-.003 5.809 2.67 7.01z"/><path d="m376.212 381.813 4.998 2.243c2.665 1.195 5.807.013 7.01-2.67 1.199-2.672.003-5.808-2.67-7.01l-4.998-2.243c-2.67-1.191-5.808 0-7.01 2.67-1.199 2.672-.003 5.809 2.67 7.01z"/><path d="m401.201 393.031 4.998 2.245c2.641 1.194 5.798.032 7.01-2.665 1.202-2.672.008-5.811-2.665-7.01l-4.998-2.245c-2.667-1.204-5.811-.008-7.01 2.665-1.201 2.673-.007 5.811 2.665 7.01z"/><path d="m301.233 348.146 4.998 2.245c2.641 1.194 5.798.032 7.01-2.665 1.202-2.672.008-5.811-2.665-7.01l-4.998-2.245c-2.67-1.204-5.811-.008-7.01 2.665-1.202 2.672-.008 5.811 2.665 7.01z"/><path d="m288.248 336.505c1.202-2.672.008-5.811-2.665-7.01l-4.998-2.245c-2.667-1.209-5.811-.005-7.01 2.665-1.202 2.672-.008 5.811 2.665 7.01l4.998 2.245c2.642 1.194 5.799.033 7.01-2.665z"/><path d="m155.783 372.835 5.001-2.245c2.672-1.199 3.866-4.338 2.665-7.01-1.199-2.672-4.343-3.866-7.01-2.665l-5.001 2.245c-2.672 1.199-3.866 4.338-2.665 7.01 1.21 2.696 4.366 3.86 7.01 2.665z"/><path d="m180.772 361.614 5.001-2.243c2.672-1.199 3.869-4.338 2.67-7.01-1.202-2.672-4.34-3.874-7.01-2.67l-5.001 2.243c-2.672 1.199-3.869 4.338-2.67 7.01 1.203 2.682 4.344 3.867 7.01 2.67z"/><path d="m105.798 395.276 4.998-2.245c2.672-1.199 3.866-4.338 2.665-7.01-1.202-2.672-4.348-3.864-7.01-2.665l-4.998 2.245c-2.672 1.199-3.866 4.338-2.665 7.01 1.205 2.685 4.355 3.866 7.01 2.665z"/><path d="m130.79 384.056 4.998-2.245c2.672-1.199 3.866-4.338 2.665-7.01-1.202-2.675-4.348-3.871-7.01-2.665l-4.998 2.245c-2.672 1.199-3.866 4.338-2.665 7.01 1.205 2.684 4.356 3.865 7.01 2.665z"/><path d="m205.767 350.393 4.998-2.243c2.672-1.202 3.869-4.338 2.67-7.01-1.199-2.675-4.343-3.869-7.01-2.67l-4.998 2.243c-2.672 1.202-3.869 4.338-2.67 7.01 1.203 2.682 4.344 3.867 7.01 2.67z"/><path d="m230.759 339.173 4.998-2.243c2.672-1.202 3.869-4.338 2.67-7.01-1.202-2.675-4.34-3.874-7.01-2.67l-4.998 2.243c-2.672 1.202-3.869 4.338-2.67 7.01 1.203 2.681 4.344 3.866 7.01 2.67z"/></g></g></svg>