<svg enable-background="new 0 0 128 128" viewBox="0 0 128 128" xmlns="http://www.w3.org/2000/svg"><g id="guide"/><g id="Line" display="none"/><g id="keyword" display="none"/><g id="Layer_35"><g><path d="m121.81 58.68c-6.46 13.86-20.51 22.82-35.81 22.82-21.78 0-39.5-17.72-39.5-39.5s17.72-39.5 39.5-39.5c3.66 0 7.27.5 10.74 1.48.59.16 1.02.67 1.08 1.28.07.61-.24 1.19-.78 1.48-8.97 4.8-14.54 14.1-14.54 24.26 0 15.16 12.34 27.5 27.5 27.5 3.42 0 6.75-.62 9.91-1.85.57-.22 1.22-.07 1.63.37.42.45.53 1.11.27 1.66z" fill="#ffc362"/><path d="m121.81 58.68c-2.09 4.48-4.98 8.46-8.44 11.77-7.24 6.95-17.02 11.05-27.37 11.05-21.78 0-39.5-17.72-39.5-39.5 0-15.58 9.06-29.07 22.19-35.5 5.23-2.56 11.11-4 17.31-4 3.66 0 7.27.5 10.74 1.48.59.16 1.02.67 1.08 1.28.07.61-.24 1.19-.78 1.48-8.97 4.8-14.54 14.1-14.54 24.26 0 15.16 12.34 27.5 27.5 27.5 3.42 0 6.75-.62 9.91-1.85.57-.22 1.22-.07 1.63.37.42.45.53 1.11.27 1.66z" fill="#3f5c6c"/><path d="m113.4 70.41c.008.012-.004-.005.005.007-7.244 6.97-17.038 11.083-27.405 11.083-21.78 0-39.5-17.72-39.5-39.5 0-15.58 9.06-29.07 22.19-35.5-7.5 7.2-12.19 17.31-12.19 28.5 0 .666.017 1.328.05 1.987.082 1.612 2.196 2.171 3.095.83l.025-.037 1.666-2.497c.792-1.186 2.535-1.186 3.327 0l1.666 2.497c4.88 7.32 11.53 13.45 19.22 17.73l4.99 2.77c4.708 2.614 8.22 6.796 10.043 11.683.912 2.445 3.559 3.745 6.07 3.036 2.333-.658 4.591-1.528 6.748-2.589z" fill="#2c3e50"/><path d="m125.5 29c0 .69-.47 1.29-1.15 1.46-5.27 1.28-9.38 5.54-10.47 10.85l-.41 1.99c-.14.7-.76 1.2-1.47 1.2s-1.33-.5-1.47-1.2l-.41-1.99c-1.09-5.31-5.2-9.57-10.47-10.85-.68-.17-1.15-.77-1.15-1.46s.47-1.29 1.15-1.46c5.27-1.28 9.38-5.54 10.47-10.85l.41-1.99c.14-.7.76-1.2 1.47-1.2s1.33.5 1.47 1.2l.41 1.99c1.09 5.31 5.2 9.57 10.47 10.85.68.17 1.15.77 1.15 1.46z" fill="#ffc362"/><path d="m29 28.45c0 1.65-.54 3.27-1.53 4.59l-1.47 1.96h-14l-1.47-1.96c-.99-1.32-1.53-2.94-1.53-4.59 0-1.37.37-2.7 1.03-3.85.67-1.15 1.63-2.12 2.83-2.81 2.05-1.17 3.7-2.92 4.76-5.02l1.38-2.77 1 2 .38.77c1.06 2.1 2.71 3.85 4.76 5.02 1.2.69 2.16 1.66 2.83 2.81.66 1.15 1.03 2.48 1.03 3.85z" fill="#ed9d3e"/><path d="m21.535 21.815c.045-.177.263-.247.399-.125.602.539 2.1 1.837 3.086 2.299 1.199.563.568 1.811.267 2.289-.07.111-.213.145-.325.077-.822-.499-3.938-2.538-3.427-4.54z" fill="#ffd066"/><path d="m21.9 34.5-.95.5h-8.95l-1.47-1.96c-.99-1.32-1.53-2.94-1.53-4.59 0-1.37.37-2.7 1.03-3.85.67-1.15 1.63-2.12 2.83-2.81 2.05-1.17 3.7-2.92 4.76-5.02l1.38-2.77 1 2s-1.021.628-1.46.95c-1.04.763-.92 3.497-3.09 5.257-4.63 3.77-1.17 12.293 6.45 12.293z" fill="#d66729"/><path d="m9 59h20v65h-20z" fill="#3f5c6c"/><g fill="#2c3e50"><path d="m27.07 66.47c-2.01 3.42-3.07 7.32-3.07 11.29 0 2.527.434 5.019 1.266 7.378.387 1.096.105 2.348-.829 3.039-1.477 1.093-2.437 2.847-2.437 4.823v1.443c0 .812-.394 1.55-1 2.091-1.227 1.097-2 2.69-2 4.465v2h-10v11.5c0-3.312 2.67-5.739 6.059-7.485 1.797-.926 3.941.36 3.941 2.381v14.605h10v-21-8-2.85-5.15-23.3c-.71.87-1.36 1.8-1.93 2.77z"/><path d="m29 82.5s-20 2.436-20 11.5v-11.5z"/><path d="m29.323 59s-20.323 2.34-20.323 16.383v-16.383z"/></g><path d="m28.865 34.5h-19.73c-.848 0-1.311.989-.768 1.64l3.633 4.36v9.5h14v-9.5l3.633-4.36c.543-.651.08-1.64-.768-1.64z" fill="#3f5c6c"/><path d="m26 40.5h-14v8.5s4.106-8.5 14-8.5z" fill="#2c3e50"/><path d="m33.45 50.37-3.2 8c-.15.38-.52.63-.93.63h-20.64c-.41 0-.78-.25-.93-.63l-3.2-8c-.26-.66.22-1.37.93-1.37h27.04c.71 0 1.19.71.93 1.37z" fill="#ed9d3e"/><path d="m29 59h-20.32c-.41 0-.78-.25-.93-.63l-3.2-8c-.26-.66.22-1.37.93-1.37h6.52s1.68 10 17 10z" fill="#d66729"/><path d="m103 101v23h-80v-23c0-1.1.9-2 2-2h76c1.1 0 2 .9 2 2z" fill="#26b99a"/><path d="m94 124h-71v-23c0-1.1.9-2 2-2h46.81s-3.28 21.19 22.19 25z" fill="#33907c"/><path d="m46 124h-14v-6.384c0-4.62 2.753-8.796 7-10.616 4.247 1.82 7 5.996 7 10.616z" fill="#ffc362"/><path d="m39 107c-.524.224-1.024.485-1.5.778 3.383 2.079 5.5 5.787 5.5 9.838v6.384h3v-6.384c0-4.62-2.753-8.796-7-10.616z" fill="#ed9d3e"/><path d="m70 124h-14v-6.384c0-4.62 2.753-8.796 7-10.616 4.247 1.82 7 5.996 7 10.616z" fill="#ffc362"/><path d="m63 107c-.524.224-1.024.485-1.5.778 3.383 2.079 5.5 5.787 5.5 9.838v6.384h3v-6.384c0-4.62-2.753-8.796-7-10.616z" fill="#ed9d3e"/><path d="m94 124h-14v-6.384c0-4.62 2.753-8.796 7-10.616 4.247 1.82 7 5.996 7 10.616z" fill="#ffc362"/><path d="m87 107c-.524.224-1.024.485-1.5.778 3.383 2.079 5.5 5.787 5.5 9.838v6.384h3v-6.384c0-4.62-2.753-8.796-7-10.616z" fill="#ed9d3e"/><path d="m19 74.5c-.828 0-1.5-.672-1.5-1.5v-4c0-.828.672-1.5 1.5-1.5s1.5.672 1.5 1.5v4c0 .828-.672 1.5-1.5 1.5z" fill="#ffc362"/><path d="m100 93v6h-74v-6c0-1.1.9-2 2-2h70c1.1 0 2 .9 2 2z" fill="#51528c"/><path d="m83.21 99h-57.21v-6c0-1.1.9-2 2-2h44s.62 8 11.21 8z" fill="#303256"/><path d="m98 77.757c0 3.426-.963 6.784-2.779 9.689l-2.221 3.554h-60l-2.221-3.554c-1.816-2.905-2.779-6.263-2.779-9.689 0-6.639 3.599-12.757 9.403-15.981l4.99-2.772c8.285-4.603 15.35-11.118 20.607-19.004 5.257 7.886 12.322 14.401 20.607 19.004l4.99 2.772c5.804 3.224 9.403 9.342 9.403 15.981z" fill="#ffc362"/><path d="m63 40s0 .01-.01.04l-.58 1.86c-.21.68-.43 1.35-.68 2.02-1.35 3.92-3.09 7.68-5.16 11.24-2.43 4.18-5.33 8.08-8.65 11.64-1.07 1.15-1.94 2.44-2.58 3.84-.11.25-.22.5-.32.76-.67 1.69-1.02 3.5-1.02 5.35 0 5.12 2.69 9.86 7.08 12.5l2.92 1.75h-21l-2.22-3.55c-1.82-2.91-2.78-6.27-2.78-9.69 0-3.32.9-6.51 2.52-9.27 1.63-2.77 3.98-5.1 6.88-6.71l4.99-2.78c8.29-4.6 15.35-11.11 20.61-19z" fill="#d66729"/><path d="m82 76.75c0 5.12-2.69 9.86-7.08 12.5l-2.92 1.75h-18l-2.92-1.75c-4.39-2.64-7.08-7.38-7.08-12.5 0-1.85.35-3.66 1.02-5.35.1-.26.21-.51.32-.76.64-1.4 1.51-2.69 2.58-3.84 3.32-3.56 6.22-7.46 8.65-11.64 2.07-3.56 3.81-7.32 5.16-11.24.25-.67.47-1.34.68-2.02l.58-1.86c.01-.03.01-.04.01-.04l.59 1.9c2.9 9.28 7.85 17.79 14.49 24.9 1.26 1.35 2.24 2.91 2.9 4.6.67 1.69 1.02 3.5 1.02 5.35z" fill="#ed9d3e"/></g><g fill="#2c3e50"><path d="m122.271 56.337c-.687-.734-1.782-.984-2.724-.618-3.038 1.181-6.25 1.781-9.547 1.781-14.612 0-26.5-11.888-26.5-26.5 0-9.795 5.369-18.753 14.014-23.379.905-.486 1.416-1.457 1.302-2.46-.102-1.019-.83-1.881-1.804-2.143-3.566-1.007-7.271-1.518-11.012-1.518-6.217 0-12.188 1.38-17.749 4.102-14.033 6.872-22.751 20.818-22.751 36.398 0 .357.005.713.014 1.068.014.543.459.975.999.975h.026c.552-.015.988-.474.975-1.025-.009-.338-.014-.678-.014-1.018 0-14.811 8.288-28.068 21.63-34.602 5.285-2.586 10.961-3.898 16.87-3.898 3.558 0 7.079.485 10.479 1.446.188.05.326.216.348.427.022.201-.077.388-.259.485-9.295 4.974-15.068 14.608-15.068 25.142 0 15.715 12.785 28.5 28.5 28.5 3.546 0 7.002-.646 10.271-1.917.184-.073.403-.026.537.118.143.152.182.373.095.556-2.013 4.315-4.78 8.175-8.226 11.472-3.894 3.738-8.615 6.649-13.694 8.483.005-.152.017-.303.017-.455 0-6.998-3.8-13.457-9.918-16.854l-4.989-2.772c-8.109-4.505-15.115-10.966-20.261-18.685-.371-.557-1.293-.557-1.664 0-5.146 7.719-12.151 14.18-20.261 18.685l-4.989 2.772c-2.87 1.594-5.221 3.867-6.918 6.548v-7.451c.409 0 .776-.249.929-.629l4-10c.123-.308.085-.657-.101-.932-.186-.274-.496-.439-.828-.439h-7v-7.138l4.769-5.722c.248-.299.302-.714.137-1.064-.165-.351-.518-.576-.906-.576h-2.634c1.052-1.465 1.634-3.25 1.634-5.054 0-3.101-1.672-5.981-4.364-7.521-1.882-1.076-3.39-2.669-4.358-4.607l-1.163-2.326c1.38-.04 2.656-.791 3.35-1.991.277-.479.113-1.09-.364-1.366-.481-.278-1.092-.114-1.366.364-.359.617-1.023 1.001-1.735 1.001-1.103 0-2-.897-2-2s.897-2 2-2c.553 0 1-.447 1-1s-.447-1-1-1c-2.206 0-4 1.794-4 4 0 1.528.87 2.842 2.132 3.516-.008.014-.02.023-.027.037l-1.383 2.766c-.969 1.938-2.477 3.531-4.358 4.607-2.692 1.539-4.364 4.42-4.364 7.52 0 1.804.582 3.589 1.634 5.054h-2.634c-.388 0-.741.225-.905.576-.165.351-.111.766.137 1.064l4.768 5.722v7.138h-7c-.332 0-.642.165-.828.439s-.224.624-.101.932l4 10c.153.38.52.629.929.629h1 19v11.213c0 .094.029.179.053.265-.686 1.991-1.053 4.109-1.053 6.279 0 1.093.104 2.176.286 3.243h-17.286v-16c0-.553-.447-1-1-1s-1 .447-1 1v16h-1c-.553 0-1 .447-1 1s.447 1 1 1h20.728c.493 1.745 1.231 3.421 2.203 4.977l1.265 2.023h-5.196c-.553 0-1 .447-1 1v7h-2c-.553 0-1 .447-1 1v3h-12v-13c0-.553-.447-1-1-1s-1 .447-1 1v13h-1c-.553 0-1 .447-1 1s.447 1 1 1h15v19h-12v-14c0-.553-.447-1-1-1s-1 .447-1 1v15c0 .553.447 1 1 1h14 80c.553 0 1-.447 1-1v-25c0-.553-.447-1-1-1h-2v-7c0-.553-.447-1-1-1h-5.196l1.264-2.023c1.447-2.314 2.378-4.895 2.748-7.576 5.664-1.902 10.935-5.09 15.245-9.228 3.624-3.468 6.536-7.529 8.651-12.064.434-.912.256-2.025-.441-2.772zm-110.939-23.894c-.858-1.146-1.332-2.565-1.332-3.997 0-2.385 1.286-4.601 3.356-5.784 2.227-1.272 4.009-3.156 5.155-5.449l.489-.977.488.977c1.146 2.293 2.929 4.177 5.155 5.449 2.071 1.184 3.357 3.4 3.357 5.784 0 1.432-.474 2.851-1.332 3.996l-.793 1.058h-13.751zm1.437 7.416-3.634-4.359h19.73l-3.634 4.359c-.149.18-.231.407-.231.641v7.5h-12v-7.5c0-.234-.082-.461-.231-.641zm-3.769 18.141h-.323l-3.2-8h27.047l-3.2 8h-.324zm93 65h-78v-23h2 74 2zm-3-25h-72v-6h6 60 6zm-4.627-11.084-1.928 3.084h-58.89l-1.928-3.084c-1.719-2.749-2.627-5.916-2.627-9.159 0-6.272 3.406-12.061 8.889-15.106l4.989-2.772c7.958-4.421 14.889-10.663 20.122-18.109 5.233 7.446 12.164 13.688 20.122 18.108l4.989 2.772c5.483 3.046 8.889 8.834 8.889 15.107 0 3.243-.908 6.41-2.627 9.159z"/><path d="m47.327 51.066c.067 0 .136-.007.205-.021.54-.112.888-.642.774-1.183-.14-.671-.262-1.349-.366-2.032-.082-.547-.59-.923-1.138-.839-.547.082-.922.592-.839 1.138.108.721.238 1.434.386 2.142.098.471.514.795.978.795z"/></g></g><g id="Bedug"/><g id="Lantern_00000137821495617183005080000010489773611714655631_"/><g id="Crescent_Moon"/><g id="Iftar"/><g id="Infaq"/><g id="Reminder"/><g id="Location"/><g id="Moon"/><g id="Eat"/><g id="Ketupat"/><g id="No_Drink"/><g id="Candle"/><g id="Palm_Tree"/><g id="Calendar"/><g id="Teapot"/><g id="Wudhu"/><g id="Meal"/><g id="Giving"/><g id="No_Eating"/><g id="Beads"/><g id="Muslimah"/><g id="Muslim"/><g id="Charity"/><g id="Adhan"/><g id="Dates"/><g id="Rub_el_hizb"/><g id="Lantern"/><g id="Zakat"/><g id="Dua"/><g id="Qur_x27_an"/><g id="Kaaba"/><g id="Praying"/><g id="Sajadah"/><g id="Mosque"/><g id="Layer_34" display="none"/></svg>