<svg height="512" viewBox="0 0 64 64" width="512" xmlns="http://www.w3.org/2000/svg"><g id="Layer_2" data-name="Layer 2"><path d="m36.608 42.469c-4.186-7.888.6-11.8 4.124-14.664l.42-.342a16.44 16.44 0 0 0 4.6-5.565 1.046 1.046 0 0 1 .922-.612 1.274 1.274 0 0 1 .921.61 16.638 16.638 0 0 0 4.6 5.567l.42.342c.94.763 2.006 1.579 2.984 2.512v-9.258a1 1 0 0 0 -.293-.707l-14.049-14.059a1 1 0 0 0 -.707-.293h-19.882a1 1 0 0 0 -.707.293l-14.061 14.059a1 1 0 0 0 -.293.707v19.882a1 1 0 0 0 .293.707l14.06 14.059a1 1 0 0 0 .707.293h15.94zm6.729-25.611 1.414-1.414a1 1 0 1 1 1.414 1.414l-1.414 1.414a1 1 0 1 1 -1.414-1.414zm-13.729-6.858a1 1 0 0 1 2 0v2a1 1 0 1 1 -2 0zm-14.555 5.444a1 1 0 0 1 1.414 0l1.414 1.414a1 1 0 1 1 -1.414 1.414l-1.414-1.414a1 1 0 0 1 0-1.414zm-3.445 16.556h-2a1 1 0 0 1 0-2h2a1 1 0 1 1 0 2zm6.273 13.142-1.414 1.414a1 1 0 1 1 -1.414-1.414l1.414-1.414a1 1 0 0 1 1.414 1.414zm13.727 6.858a1 1 0 0 1 -2 0v-2a1 1 0 0 1 2 0zm0-18.184v6.041a1 1 0 0 1 -2 0v-6.041a3 3 0 0 1 -1.815-1.816h-11.185a1 1 0 0 1 0-2h11.185a2.992 2.992 0 1 1 3.815 3.816zm0-2.816a1 1 0 1 1 -1-1 1 1 0 0 1 1 1zm19.755-1.643-.425-.345a20.6 20.6 0 0 1 -4.259-4.683 20.618 20.618 0 0 1 -4.261 4.683l-.425.345c-3.373 2.743-6.838 5.576-3.893 11.643h17.156c2.944-6.067-.52-8.9-3.893-11.643zm3.006 6.475a1 1 0 0 1 -1.376-.326 12.746 12.746 0 0 0 -2.6-2.877 1 1 0 1 1 1.31-1.51 14.531 14.531 0 0 1 2.99 3.336 1 1 0 0 1 -.324 1.377zm2.239 7.168v14a1 1 0 0 1 -1 1h-5v-9a1 1 0 0 0 -1-1h-6a1 1 0 0 0 -1 1v9h-4v-15zm-12 7h4v8h-4z"/></g></svg>