<svg id="Solid" height="512" viewBox="0 0 64 64" width="512" xmlns="http://www.w3.org/2000/svg"><path d="m.4 31.2a1 1 0 0 0 0 1.6l4.99 3.742a26.643 26.643 0 0 1 0-9.084z"/><path d="m63.6 31.2-4.99-3.742a26.643 26.643 0 0 1 0 9.084l4.99-3.742a1 1 0 0 0 0-1.6z"/><path d="m9.974 16.413a27.225 27.225 0 0 1 6.439-6.439l-6.192-.884a1 1 0 0 0 -1.131 1.131z"/><path d="m54.026 47.587a27.225 27.225 0 0 1 -6.439 6.439l6.192.884a1 1 0 0 0 1.131-1.131z"/><path d="m36.542 5.39-3.742-4.99a1 1 0 0 0 -1.6 0l-3.742 4.99a26.643 26.643 0 0 1 9.084 0z"/><path d="m27.458 58.61 3.742 4.99a1 1 0 0 0 1.6 0l3.742-4.99a26.643 26.643 0 0 1 -9.084 0z"/><path d="m9.974 47.587-.884 6.192a1 1 0 0 0 1.131 1.131l6.192-.884a27.225 27.225 0 0 1 -6.439-6.439z"/><path d="m21 29.865 10-2.5v-2.084l-10 2.5z"/><path d="m21 34.011 10-2.5v-2.084l-10 2.5z"/><path d="m33 44.719 10-2.5v-6.147l-10-2.499z"/><path d="m21 42.219 10 2.5v-11.146l-10 2.499z"/><path d="m33 31.511 10 2.5v-2.084l-10-2.5z"/><path d="m33 27.365 10 2.5v-2.084l-10-2.5z"/><path d="m51.828 22.471a22 22 0 1 1 -10.3-10.3l3.626-1.418a25.029 25.029 0 1 0 8.091 8.091z"/><path d="m41 16.383 4.725 1.889 1.892 4.728a1 1 0 0 0 1.86-.007l4.61-11.781a1 1 0 0 0 -1.3-1.3l-11.777 4.611a1 1 0 0 0 -.01 1.86z"/><path d="m50 31h1.949a19.814 19.814 0 0 0 -1.343-6.213 2.969 2.969 0 0 1 -4.18-.034 3.019 3.019 0 0 1 -.666-1.014l-1.571-3.928-3.928-1.571a2.988 2.988 0 0 1 -1.822-3.406 2.958 2.958 0 0 1 .775-1.44 19.854 19.854 0 0 0 -6.214-1.343v1.949a1 1 0 0 1 -2 0v-1.949a19.992 19.992 0 0 0 -18.949 18.949h1.949a1 1 0 0 1 0 2h-1.949a19.991 19.991 0 0 0 18.949 18.949v-1.949a1 1 0 0 1 2 0v1.949a19.991 19.991 0 0 0 18.949-18.949h-1.949a1 1 0 0 1 0-2zm-5 12a1 1 0 0 1 -.757.97l-12 3a1 1 0 0 1 -.486 0l-12-3a1 1 0 0 1 -.757-.97v-16a1 1 0 0 1 .757-.97l12-3a1 1 0 0 1 .486 0l12 3a1 1 0 0 1 .757.97z"/></svg>