<svg version="1.1" id="Capa_1" xmlns="http://www.w3.org/2000/svg" xmlns:xlink="http://www.w3.org/1999/xlink" x="0px" y="0px" viewBox="0 0 512 512" style="enable-background:new 0 0 512 512;" xml:space="preserve">
<g>
	<g>
		<g>
			
				<line style="fill:none;stroke:#000000;stroke-width:15;stroke-linecap:round;stroke-linejoin:round;stroke-miterlimit:10;" x1="175.683" y1="474.941" x2="336.317" y2="474.941"/>
			<path style="fill:none;stroke:#000000;stroke-width:15;stroke-linecap:round;stroke-linejoin:round;stroke-miterlimit:10;" d="&#10;&#9;&#9;&#9;&#9;M351.643,278.864v-95.229c0-2.761-2.239-5-5-5h-9.324c-13.672,0-25.632-8.265-30.469-21.056&#10;&#9;&#9;&#9;&#9;c-4.831-12.775-1.338-26.866,8.896-35.898c3.639-3.212,5.727-10.318,5.727-19.493c0-16.275-18.154-29.131-45.849-46.887&#10;&#9;&#9;&#9;&#9;c-5.537-3.551-11.168-7.161-16.655-10.923c-1.727-1.185-3.994-1.177-5.715,0.017c-6.006,4.169-12.166,8.12-18.217,12.002&#10;&#9;&#9;&#9;&#9;c-27.696,17.768-44.513,29.716-44.513,45.791c0,9.175,2.088,16.281,5.726,19.492c10.235,9.033,13.728,23.124,8.897,35.899&#10;&#9;&#9;&#9;&#9;c-4.837,12.791-16.797,21.056-30.469,21.056h-9.324c-2.761,0-5,2.239-5,5V217"/>
			
				<line style="fill:none;stroke:#000000;stroke-width:15;stroke-linecap:round;stroke-linejoin:round;stroke-miterlimit:10;" x1="160.357" y1="252" x2="160.357" y2="278.864"/>
		</g>
		<g>
			<g>
				
					<line style="fill:none;stroke:#000000;stroke-width:15;stroke-linecap:round;stroke-linejoin:round;stroke-miterlimit:10;" x1="256" y1="89" x2="256" y2="93.884"/>
			</g>
			<g>
				
					<line style="fill:none;stroke:#000000;stroke-width:15;stroke-linecap:round;stroke-linejoin:round;stroke-miterlimit:10;" x1="256" y1="119.116" x2="256" y2="124"/>
			</g>
			<g>
				
					<line style="fill:none;stroke:#000000;stroke-width:15;stroke-linecap:round;stroke-linejoin:round;stroke-miterlimit:10;" x1="238.5" y1="106.5" x2="243.384" y2="106.5"/>
			</g>
			<g>
				
					<line style="fill:none;stroke:#000000;stroke-width:15;stroke-linecap:round;stroke-linejoin:round;stroke-miterlimit:10;" x1="268.616" y1="106.5" x2="273.5" y2="106.5"/>
			</g>
		</g>
		
			<line style="fill:none;stroke:#000000;stroke-width:15;stroke-linecap:round;stroke-linejoin:round;stroke-miterlimit:10;" x1="278" y1="154" x2="278" y2="154"/>
		
			<line style="fill:none;stroke:#000000;stroke-width:15;stroke-linecap:round;stroke-linejoin:round;stroke-miterlimit:10;" x1="225" y1="185" x2="225" y2="185"/>
		
			<line style="fill:none;stroke:#000000;stroke-width:15;stroke-linecap:round;stroke-linejoin:round;stroke-miterlimit:10;" x1="281" y1="208" x2="281" y2="208"/>
		
			<line style="fill:none;stroke:#000000;stroke-width:15;stroke-linecap:round;stroke-linejoin:round;stroke-miterlimit:10;" x1="44.131" y1="504.5" x2="467.869" y2="504.5"/>
		
			<polyline style="fill:none;stroke:#000000;stroke-width:15;stroke-linecap:round;stroke-linejoin:round;stroke-miterlimit:10;" points="&#10;&#9;&#9;&#9;105.403,484.601 92.912,504.5 151.209,504.5 214.691,427.828 160.63,396.616 124.023,454.936 &#9;&#9;"/>
		
			<polygon style="fill:none;stroke:#000000;stroke-width:15;stroke-linecap:round;stroke-linejoin:round;stroke-miterlimit:10;" points="&#10;&#9;&#9;&#9;297.309,427.828 360.791,504.5 419.088,504.5 351.37,396.616 &#9;&#9;"/>
		<g>
			
				<line style="fill:none;stroke:#000000;stroke-width:15;stroke-linecap:round;stroke-linejoin:round;stroke-miterlimit:10;" x1="342" y1="437" x2="342" y2="437"/>
			
				<line style="fill:none;stroke:#000000;stroke-width:15;stroke-linecap:round;stroke-linejoin:round;stroke-miterlimit:10;" x1="170" y1="437" x2="170" y2="437"/>
		</g>
		<path style="fill:none;stroke:#000000;stroke-width:15;stroke-linecap:round;stroke-linejoin:round;stroke-miterlimit:10;" d="&#10;&#9;&#9;&#9;M427.148,282.323l-18.469-30.717c-1.405-2.337-4.424-3.117-6.785-1.754l-125.254,72.315C263.868,329.541,256,343.169,256,357.916&#10;&#9;&#9;&#9;v21.623"/>
		<path style="fill:none;stroke:#000000;stroke-width:15;stroke-linecap:round;stroke-linejoin:round;stroke-miterlimit:10;" d="&#10;&#9;&#9;&#9;M256,379.539v-21.623c0-14.747-7.868-28.375-20.639-35.748l-125.254-72.315c-2.362-1.364-5.38-0.583-6.785,1.754l-18.469,30.717"/>
		<path style="fill:none;stroke:#000000;stroke-width:15;stroke-linecap:round;stroke-linejoin:round;stroke-miterlimit:10;" d="&#10;&#9;&#9;&#9;M455.251,296.909l-9.413-19.036c-1.321-2.671-4.624-3.671-7.205-2.181L261.16,378.156c-3.193,1.844-7.127,1.844-10.32,0&#10;&#9;&#9;&#9;L73.368,275.693c-2.581-1.49-5.884-0.49-7.205,2.181l-9.413,19.036"/>
		<path style="fill:none;stroke:#000000;stroke-width:15;stroke-linecap:round;stroke-linejoin:round;stroke-miterlimit:10;" d="&#10;&#9;&#9;&#9;M250.789,444h10.423c5.297,0,10.501-1.394,15.088-4.043L477.351,323.88c2.566-1.482,3.541-4.702,2.228-7.358l-10.206-20.639&#10;&#9;&#9;&#9;c-1.485-3.003-5.197-4.127-8.098-2.452L261.8,408.599c-3.589,2.072-8.01,2.072-11.599,0L50.725,293.431&#10;&#9;&#9;&#9;c-2.901-1.675-6.613-0.551-8.098,2.452l-10.206,20.639c-1.314,2.656-0.339,5.876,2.228,7.358L235.7,439.957&#10;&#9;&#9;&#9;C240.287,442.606,245.491,444,250.789,444z"/>
		<g>
			
				<line style="fill:none;stroke:#000000;stroke-width:15;stroke-linecap:round;stroke-linejoin:round;stroke-miterlimit:10;" x1="130.798" y1="379.392" x2="130.798" y2="444.144"/>
			
				<line style="fill:none;stroke:#000000;stroke-width:15;stroke-linecap:round;stroke-linejoin:round;stroke-miterlimit:10;" x1="381.202" y1="444.144" x2="381.202" y2="379.392"/>
			<path style="fill:none;stroke:#000000;stroke-width:15;stroke-linecap:round;stroke-linejoin:round;stroke-miterlimit:10;" d="&#10;&#9;&#9;&#9;&#9;M381.202,261.798v-82.554c0-16.662-13.507-30.169-30.169-30.169H337.32c-2.754,0-4.077-3.412-2.013-5.234&#10;&#9;&#9;&#9;&#9;c10.026-8.849,15.726-23.128,15.726-41.653c0-9.616-2.509-18.086-6.757-25.715"/>
			<path style="fill:none;stroke:#000000;stroke-width:15;stroke-linecap:round;stroke-linejoin:round;stroke-miterlimit:10;" d="&#10;&#9;&#9;&#9;&#9;M320.745,50.506c-18.788-14.925-42.392-26.965-58.831-40.837c-3.428-2.893-8.396-2.896-11.806,0.018&#10;&#9;&#9;&#9;&#9;c-32.48,27.741-89.141,46.213-89.141,92.501c0,18.525,5.7,32.805,15.726,41.653c2.065,1.822,0.741,5.234-2.013,5.234h-13.713&#10;&#9;&#9;&#9;&#9;c-16.662,0-30.169,13.507-30.169,30.169v82.554"/>
		</g>
	</g>
</g>
<g>
</g>
<g>
</g>
<g>
</g>
<g>
</g>
<g>
</g>
<g>
</g>
<g>
</g>
<g>
</g>
<g>
</g>
<g>
</g>
<g>
</g>
<g>
</g>
<g>
</g>
<g>
</g>
<g>
</g>
</svg>