<svg id="Capa_1" enable-background="new 0 0 579.842 579.842" height="512" viewBox="0 0 579.842 579.842" width="512" xmlns="http://www.w3.org/2000/svg"><g><g><path d="m168.022 422.982c-.93-17.676-1.054-35.218-.368-52.162.101-2.54 2.163-4.547 4.781-4.413 2.54.101 4.514 2.241 4.413 4.781-.672 16.659-.548 33.92.364 51.297 1.316 24.017 4.335 48.219 8.836 72.061 3.884-1.776 8.062-2.789 12.434-2.789.087 0 .17.014.253.018-4.05-15.37-6.521-30.892-7.151-46.263-.492-12.043.115-22.913.653-32.508 1.169-20.92 2.016-36.033-8.739-48.094-1.275-1.445-3.958-4.238-7.86-6.898-10.709-7.308-22.292-7.308-33.005 0-4.146 2.83-6.802 5.716-7.745 6.825-8.955 10.262-8.15 20.349-6.926 35.605.953 11.891 2.14 26.691-1.298 45.701-2.715 14.947-7.736 29.604-12.167 42.535-4.676 13.645-9.972 29.107-7.23 32.761 2.329 3.106 5.136 4.988 7.354 6.102 6.351-18.61 11.583-37.611 15.481-56.589 5.877-28.67 9.02-57.855 9.337-86.745.028-2.526 2.085-4.551 4.602-4.551h.051c2.54.028 4.579 2.112 4.551 4.652-.327 29.475-3.53 59.249-9.526 88.494-3.833 18.688-8.96 37.399-15.131 55.747 1.026-.336 2.08-.745 3.29-1.256 3.3-1.408 7.409-3.06 13.221-3.033 2.688-10.566 5.053-21.362 6.921-32.227 2.421-14.123 4.123-28.315 5.053-42.181.17-2.536 2.333-4.413 4.896-4.289 2.536.17 4.455 2.365 4.284 4.896-.948 14.183-2.683 28.688-5.163 43.129-1.891 11.003-4.289 21.942-7.004 32.65 2.209 1.022 3.999 2.255 5.596 3.419 2.688 1.965 4.814 3.52 9.056 3.847 2.384.203 4.22-.138 6.323-.902-1.302-3.428-2.029-7.045-2.029-10.709 0-8.311 3.364-16.088 9.277-21.772-4.992-25.478-8.273-51.415-9.685-77.139z"/><path d="m497.005 475.512c0-11.344-6.452-21.574-16.189-26.677 3.797-7.335 4.505-15.89 1.707-23.875-2.692-7.598-8.182-13.695-15.458-17.151-2.062-.98-4.202-1.689-6.378-2.172 6.222-7.869 8.426-18.642 4.86-28.757-2.683-7.593-8.15-13.691-15.407-17.156-2.075-.989-4.234-1.703-6.424-2.195 6.222-7.86 8.426-18.647 4.846-28.789-4.146-11.753-15.011-19.411-26.852-19.986 8.831-7.929 12.49-20.755 8.352-32.471-2.678-7.598-8.15-13.691-15.402-17.156-2.075-.989-4.234-1.703-6.424-2.195 6.222-7.86 8.426-18.647 4.846-28.785-4.142-11.749-15.025-19.406-26.88-20.014 8.803-7.929 12.471-20.736 8.38-32.452-2.683-7.598-8.155-13.691-15.407-17.156-7.234-3.451-15.384-3.884-22.954-1.206-3.971 1.404-7.483 3.645-10.488 6.47-3.47-4.344-7.45-8.201-11.9-11.5-4.873-3.58-10.248-6.424-16.01-8.55.635-2.241.999-4.57.999-6.93 0-9.231-4.961-17.308-12.338-21.771 3.323-3.396 5.384-8.095 5.38-13.355l-4.639-64.762v-18.467c0-7.612-6.194-13.806-13.898-13.806-5.297 0-9.857 3.033-12.167 7.441-4.846-1.983-9.894-3.387-15.071-4.169-5.955-.902-11.97-.943-17.938-.212-3.448-4.749-8.994-7.708-14.971-7.708-5.877 0-11.316 2.858-14.74 7.423-4.096-1.813-8.513-2.775-13.01-2.775-17.837 0-32.351 14.556-32.351 32.443 0 1.758.17 3.479.437 5.163-8.196 1.905-14.335 9.245-14.335 18.03 0 3.691 1.091 7.151 3.042 10.115-1.583 2.043-3.01 4.142-4.109 6.397-1.127 2.227-1.947 4.611-2.628 7.096-8.458 1.698-14.85 9.181-14.85 18.131 0 2.467.525 4.883 1.468 7.128-34.73 8.702-59.268 39.779-59.268 76.396 0 34.776 22.292 64.845 54.836 75.089-1.04 2.664-1.638 5.481-1.638 8.389 0 7.331 3.479 14.188 9.25 18.546 0 .018-.005.032-.005.046v17.17c-11.164 5.334-18.5 16.631-18.5 29.217 0 7.17 2.324 13.93 6.567 19.535-2.734 2.301-4.63 4.344-5.43 5.283-11.472 13.148-10.437 26.037-9.13 42.356.957 11.951 2.043 25.494-1.178 43.322-2.591 14.261-7.492 28.568-11.818 41.191-6.71 19.581-11.555 33.727-5.881 41.274 6.788 9.043 16.304 10.971 16.719 11.049 6.185 1.173 10.474-.649 14.252-2.255 3.051-1.298 5.66-2.43 9.586-2.315 1.003.037 1.928.147 2.651.281 2.66.543 4.372 1.795 6.535 3.369 3.083 2.25 6.926 5.057 13.75 5.591.745.06 1.459.092 2.149.092 3.603 0 6.502-.819 9.494-2.057 5.67 7.036 14.312 11.279 23.433 11.279 2.586 0 5.117-.35 7.584-.994 2.752 13.773 14.915 24.188 29.461 24.188 9.719 0 18.495-4.735 24.013-12.08 4.929 9.899 15.113 16.728 26.884 16.728 10.727 0 20.133-5.679 25.453-14.169 5.324 8.495 14.749 14.169 25.49 14.169 11.767 0 21.951-6.825 26.88-16.719 5.518 7.335 14.293 12.071 24.017 12.071 11.767 0 21.951-6.825 26.88-16.719 5.518 7.335 14.293 12.071 24.017 12.071 16.594 0 30.096-13.502 30.096-30.096 0-.824-.11-1.638-.18-2.457 13.014-1.086 23.281-12.048 23.281-25.389 0-5.522-1.763-10.819-4.942-15.126 6.059-5.651 9.593-13.52 9.593-21.965zm-33.892-59.382c5.053 2.398 8.863 6.627 10.732 11.896 2.103 5.996 1.394 12.489-1.845 17.855-9.687-1.634-19.36 1.523-26.199 8.306-5.242-2.31-9.365-6.705-11.275-12.186-3.833-10.86 1.864-22.825 12.72-26.673 5.218-1.872 10.851-1.582 15.867.802zm-16.945-48.095c5.034 2.402 8.831 6.631 10.695 11.914 3.833 10.851-1.873 22.835-12.706 26.709-5.246 1.85-10.902 1.551-15.927-.861-5.03-2.411-8.826-6.636-10.686-11.891-3.843-10.883 1.859-22.871 12.706-26.714 5.247-1.853 10.902-1.563 15.918.843zm-6.286-36.226c3.843 10.888-1.855 22.871-12.706 26.714-5.242 1.85-10.897 1.56-15.918-.838-5.034-2.402-8.831-6.631-10.695-11.914-3.833-10.86 1.864-22.825 12.848-26.714.382-.152.796-.267 1.178-.35.074-.018.147-.037.221-.055 1.822-.506 3.658-.75 5.472-.75 8.579.001 16.609 5.422 19.6 13.907zm-29.189-64.371c5.034 2.402 8.826 6.631 10.69 11.91 3.599 10.207-1.279 21.638-11.058 25.996-.561.244-1.123.479-1.657.676-5.232 1.868-10.888 1.583-15.927-.824-5.039-2.402-8.826-6.618-10.676-11.887-3.843-10.888 1.855-22.871 12.706-26.709 2.273-.805 4.625-1.206 6.967-1.206 3.06.001 6.106.682 8.955 2.044zm-6.291-36.226c3.843 10.888-1.855 22.871-12.701 26.709-5.255 1.859-10.916 1.555-15.932-.842-5.03-2.407-8.822-6.631-10.681-11.905-3.833-10.851 1.873-22.835 12.812-26.751.396-.152.787-.276 1.183-.364.064-.014.124-.028.189-.046 1.813-.497 3.64-.736 5.444-.736 8.618.001 16.69 5.436 19.686 13.935zm-55.255-57.482c.005 0 .005-.004 0 0 2.499-3.594 6.005-6.263 10.143-7.731 2.273-.805 4.62-1.206 6.963-1.206 3.06 0 6.107.681 8.951 2.043 5.034 2.402 8.831 6.631 10.69 11.896 3.566 10.216-1.33 21.656-11.095 26.01-.557.239-1.114.479-1.666.676-5.219 1.864-10.851 1.583-15.863-.801-5.053-2.398-8.868-6.631-10.727-11.882-2.246-6.478-1.298-13.409 2.604-19.005zm-60.423-155.276c0-2.582 2.02-4.602 4.694-4.602 2.582 0 4.602 2.02 4.602 4.602v14.036h-9.296zm-4.1 76.161h17.51l.534 7.409c0 5.154-4.169 9.342-9.296 9.342s-9.296-4.192-9.305-9.024zm8.748 25.954c8.955 0 16.245 7.285 16.245 16.245 0 2.706-.635 5.251-1.905 7.607-2.826 5.357-8.32 8.684-14.339 8.684-8.955 0-16.245-7.308-16.245-16.291 0-8.955 7.289-16.245 16.244-16.245zm-38.011 388.896c-1.072 3.488-3.023 6.613-5.665 9.089-6.631-3.516-14.574-4.358-21.799-2.517-1.505-7.648-5.858-14.418-12.278-18.872 2.651-8.684 10.575-14.744 19.908-14.744 2.398 0 4.763.433 6.99 1.229-.014.373-.041.727-.041 1.118-.001 9.92 4.864 19.074 12.885 24.697zm-3.682-24.703c0-1.206.083-2.25.267-3.3 1.468-9.48 9.503-16.843 19.503-17.556.216-.032.433-.041.653-.041 8.104.064 15.356 4.229 19.02 11.357.005.009.009.014.009.023 1.496 2.876 2.287 6.167 2.287 9.517 0 11.546-9.374 20.939-20.893 20.939-3.401 0-6.76-.833-9.705-2.398-6.87-3.677-11.141-10.782-11.141-18.541zm22.085-30.013c-.815-2.26-1.238-4.625-1.238-7.078 0-11.546 9.351-20.939 20.846-20.939s20.847 9.392 20.847 20.939c0 9.986-7.156 18.431-16.691 20.4-5.32-7.989-14.077-12.927-23.764-13.322zm19.608-37.22c-11.496 0-20.847-9.374-20.847-20.893 0-11.551 9.351-20.943 20.847-20.943s20.846 9.392 20.846 20.943c.001 11.519-9.35 20.893-20.846 20.893zm0-51.035c-11.496 0-20.847-9.374-20.847-20.893 0-11.546 9.351-20.939 20.847-20.939s20.846 9.392 20.846 20.939c.001 11.519-9.35 20.893-20.846 20.893zm-20.846-76.575c0-11.519 9.351-20.893 20.847-20.893s20.846 9.374 20.846 20.893c0 11.518-9.351 20.893-20.846 20.893s-20.847-9.375-20.847-20.893zm20.846-30.097c-11.496 0-20.847-9.392-20.847-20.939 0-11.518 9.351-20.893 20.847-20.893s20.846 9.374 20.846 20.893c.001 11.547-9.35 20.939-20.846 20.939zm-20.846-76.621c0-11.518 9.351-20.893 20.847-20.893s20.846 9.374 20.846 20.893c0 11.546-9.351 20.939-20.846 20.939s-20.847-9.393-20.847-20.939zm-39.346-173.997c3.654 0 6.889 2.066 8.449 5.421.561 1.187.847 2.49.847 3.875 0 4.017-2.554 7.418-6.272 8.734-1.827-5.775-5.255-10.925-9.899-14.859 1.716-1.943 4.187-3.171 6.875-3.171zm-56.806 41.872c2.306 4.827 5.752 8.969 10.074 12.117-1.247 3.714-4.717 6.392-8.767 6.392-2.388 0-4.648-.893-6.387-2.54-1.873-1.749-2.908-4.146-2.908-6.756-.001-4.707 3.483-8.568 7.988-9.213zm-17.239 41.652c5.126 0 9.296 4.169 9.296 9.296 0 1.781-.502 3.474-1.413 4.924-5.481-.359-10.584-.198-15.467.446-1.1-1.569-1.712-3.447-1.712-5.37.001-5.127 4.17-9.296 9.296-9.296zm-34.698 92.82c0-33.29 27.004-60.377 60.193-60.377 4.906 0 9.949.663 14.998 1.97 2.181.566 4.478-.548 5.375-2.628.897-2.085.147-4.51-1.767-5.72-8.113-5.117-17.243-8.647-26.732-10.534.704-1.979 1.127-4.068 1.127-6.236 0-8.196-5.393-15.085-12.789-17.506.428-1.247.916-2.453 1.509-3.622.741-1.519 1.661-2.945 2.683-4.33 2.641 1.404 5.573 2.223 8.642 2.223 7.519 0 14.04-4.616 16.907-11.215 3.474 1.252 7.133 1.96 10.842 1.96 17.837 0 32.351-14.556 32.351-32.443 0-.23-.055-.451-.06-.681 7.998-2.043 13.958-9.264 13.958-17.911 0-.658-.143-1.279-.207-1.919 4.409-.368 8.84-.23 13.235.442 5.126.773 10.087 2.283 14.813 4.418v15.472c-1.21 16.535-2.375 33.106-3.543 49.645l-1.104 15.462c0 5.08 2.052 9.682 5.366 13.037-7.363 4.464-12.315 12.531-12.315 21.753 0 8.371 4.063 15.789 10.299 20.437-8.9 5.232-14.901 14.892-14.901 25.95 0 12.563 7.704 23.341 18.619 27.864-10.911 4.514-18.619 15.278-18.619 27.823 0 10.764 5.674 20.202 14.16 25.536-8.481 5.324-14.155 14.749-14.155 25.499 0 12.54 7.704 23.304 18.615 27.818-10.911 4.524-18.615 15.301-18.615 27.86 0 10.75 5.674 20.175 14.16 25.499-8.486 5.334-14.16 14.772-14.16 25.54 0 10.75 5.674 20.175 14.16 25.499-8.486 5.334-14.16 14.772-14.16 25.536 0 2.812.423 5.541 1.169 8.187-9.328 2.623-16.944 9.655-20.211 18.711-2.826-.861-5.771-1.358-8.753-1.358-12.227 0-22.738 7.253-27.432 17.961-4.165-15.297-6.687-30.754-7.317-46.042-.474-11.601.12-22.232.644-31.615 1.247-22.255 2.227-39.834-11.031-54.712-1.035-1.183-2.931-3.138-5.467-5.265 4.225-5.596 6.608-12.466 6.608-19.535 0-12.6-7.372-23.907-18.546-29.208v-17.179c0-.014-.005-.023-.005-.037 5.803-4.349 9.3-11.206 9.3-18.555 0-2.48-.419-4.901-1.178-7.207 7.773-2.02 15.205-5.186 22.135-9.563 1.919-1.21 2.669-3.64 1.767-5.72s-3.184-3.194-5.375-2.628c-5.057 1.307-10.101 1.97-14.998 1.97-33.191.005-60.195-27.059-60.195-60.326zm20.801 83.478c0-2.131.511-4.192 1.436-6.093 4.832.943 9.797 1.45 14.809 1.45 3.41 0 6.921-.313 10.455-.782.732 1.703 1.141 3.534 1.141 5.43 0 3.516-1.399 6.802-3.705 9.342-.152-.166-.249-.382-.41-.538-2.577-2.646-6.07-4.105-9.83-4.105-4.05 0-7.74 1.763-10.281 4.56-2.244-2.541-3.615-5.785-3.615-9.264zm18.545 18.592v14.353c-3.074-.446-6.208-.456-9.296-.009v-14.344c0-.405.037-.732.184-1.219.833-3.281 5.393-4.519 7.745-2.108.566.566.976 1.302 1.252 2.352.078.238.115.565.115.975zm4.648 234.281c0 3.663.727 7.276 2.029 10.709-2.103.764-3.935 1.104-6.323.902-4.238-.327-6.364-1.882-9.057-3.847-1.597-1.164-3.387-2.398-5.596-3.419 2.715-10.709 5.113-21.647 7.004-32.65 2.48-14.441 4.215-28.946 5.163-43.129.17-2.536-1.749-4.726-4.284-4.896-2.568-.124-4.731 1.753-4.896 4.289-.93 13.865-2.628 28.058-5.053 42.181-1.868 10.865-4.234 21.661-6.921 32.227-5.817-.028-9.922 1.624-13.221 3.033-1.215.515-2.264.925-3.29 1.256 6.171-18.348 11.293-37.059 15.131-55.747 5.996-29.245 9.204-59.019 9.526-88.494.028-2.54-2.011-4.625-4.551-4.652-.018 0-.037 0-.051 0-2.517 0-4.574 2.025-4.602 4.551-.318 28.886-3.461 58.071-9.337 86.745-3.893 18.978-9.13 37.979-15.481 56.589-2.218-1.114-5.025-3-7.354-6.102-2.747-3.654 2.554-19.116 7.23-32.761 4.432-12.936 9.452-27.588 12.167-42.535 3.438-19.01 2.25-33.81 1.298-45.701-1.224-15.255-2.029-25.343 6.926-35.605.948-1.109 3.599-3.994 7.745-6.825 10.713-7.308 22.296-7.308 33.005 0 3.902 2.66 6.585 5.453 7.86 6.898 10.75 12.062 9.908 27.174 8.739 48.094-.538 9.595-1.146 20.465-.653 32.508.63 15.37 3.102 30.897 7.151 46.263-.087 0-.17-.018-.253-.018-4.372 0-8.55 1.012-12.434 2.789-4.496-23.842-7.519-48.044-8.836-72.061-.911-17.377-1.035-34.638-.364-51.297.101-2.54-1.873-4.68-4.413-4.781-2.618-.133-4.68 1.873-4.781 4.413-.681 16.944-.561 34.487.368 52.162 1.408 25.725 4.694 51.661 9.687 77.146-5.914 5.677-9.278 13.454-9.278 21.765zm37.354 19.586c-2.347.87-4.795 1.312-7.303 1.312-7.285 0-14.146-3.907-17.897-10.161-1.928-3.272-2.95-6.986-2.95-10.732 0-6.447 2.89-12.448 7.911-16.452 3.728-2.936 8.201-4.487 12.936-4.487 1.822 0 3.589.226 5.246.672s3.152 1.026 4.478 1.74c6.157 3.254 10.193 9.314 10.962 16.489-7.47 4.85-12.348 12.742-13.383 21.619zm50.51 5.278c-.833 10.782-9.954 19.227-20.768 19.227-11.422 0-20.727-9.254-20.847-20.708.028-.193.041-.387.046-.584.106-7.74 4.436-14.726 11.325-18.251 6.641-3.451 15.287-2.876 21.44 1.505.005.005.014.009.018.014 5.55 3.912 8.863 10.313 8.863 17.133.001.564-.04 1.107-.077 1.664zm30.128 23.87c-11.495 0-20.846-9.374-20.846-20.893 0-.713.037-1.431.115-2.168 1.068-10.699 9.981-18.771 20.731-18.771 11.496 0 20.847 9.392 20.847 20.939 0 11.519-9.351 20.893-20.847 20.893zm50.943 0c-11.519 0-20.893-9.374-20.893-20.893 0-11.546 9.374-20.939 20.893-20.939 10.745 0 19.659 8.072 20.731 18.771v.023c.078.713.11 1.431.11 2.145.006 11.519-9.345 20.893-20.841 20.893zm50.897-4.648c-10.814 0-19.935-8.444-20.777-19.356-.032-.52-.069-1.017-.069-1.537 0-11.546 9.351-20.939 20.846-20.939 10.745 0 19.659 8.072 20.731 18.771v.023c.078.713.11 1.431.11 2.144.006 11.52-9.346 20.894-20.841 20.894zm24.054-39.01c-5.49-7.345-14.234-12.025-24.054-12.025-11.739 0-21.9 6.806-26.843 16.673-5.49-7.345-14.234-12.025-24.054-12.025-10.745 0-20.165 5.688-25.49 14.192-5.32-8.509-14.721-14.192-25.453-14.192-9.816 0-18.559 4.676-24.049 12.016-1.348-2.706-3.125-5.182-5.232-7.381 2.927-3.046 5.191-6.7 6.627-10.686 2.826.861 5.775 1.358 8.753 1.358 16.594 0 30.096-13.52 30.096-30.142 0-2.761-.419-5.485-1.15-8.109 12.687-3.589 21.951-15.333 21.951-28.983 0-10.764-5.674-20.202-14.16-25.536 8.486-5.324 14.16-14.749 14.16-25.499 0-10.768-5.674-20.207-14.16-25.54 8.486-5.324 14.16-14.749 14.16-25.499 0-12.559-7.704-23.336-18.615-27.86 10.911-4.514 18.615-15.278 18.615-27.818 0-10.75-5.674-20.175-14.16-25.499 8.486-5.334 14.16-14.772 14.16-25.536 0-12.54-7.704-23.304-18.619-27.823 10.911-4.524 18.619-15.301 18.619-27.864 0-11.063-6.005-20.722-14.91-25.955 1.956-1.459 3.718-3.189 5.2-5.182 5.301 1.859 10.235 4.39 14.652 7.635 4.376 3.249 8.21 7.174 11.486 11.62-4.031 7.432-4.809 16.337-1.993 24.459 2.692 7.602 8.182 13.695 15.462 17.151 3.635 1.726 7.492 2.646 11.39 2.835-8.79 7.924-12.476 20.658-8.306 32.471 2.678 7.589 8.145 13.677 15.389 17.147 2.075.994 4.229 1.735 6.42 2.227-6.208 7.86-8.403 18.633-4.832 28.757 2.66 7.584 8.127 13.672 15.393 17.142 3.645 1.74 7.519 2.664 11.436 2.858-8.808 7.897-12.503 20.63-8.325 32.471 2.683 7.598 8.15 13.691 15.407 17.156 2.071.989 4.215 1.726 6.401 2.218-6.208 7.86-8.403 18.633-4.827 28.771 2.683 7.57 8.145 13.649 15.384 17.124 2.08.999 4.234 1.74 6.429 2.237-6.208 7.851-8.408 18.605-4.841 28.711 2.526 7.253 7.773 13.161 14.473 16.663-2.186 4.266-3.405 9.001-3.405 13.806 0 8.44 3.53 16.309 9.567 21.965-2.784 3.778-4.459 8.279-4.855 13-.819-.069-1.634-.179-2.457-.179-11.737-.002-21.898 6.799-26.84 16.67zm26.843 34.362c-10.814 0-19.935-8.444-20.777-19.356-.032-.52-.069-1.017-.069-1.537 0-11.551 9.351-20.943 20.846-20.943 2.006 0 3.99.29 5.923.87 6.811 2.011 12.08 7.294 14.096 14.142 0 .009.005.018.005.023.575 1.914.865 3.902.865 5.904.003 11.523-9.366 20.897-20.889 20.897zm27.795-32.443c-.018 0-.032-.005-.046-.005-3.056-7.386-8.849-13.194-16.194-16.24 0-.018-.005-.032-.005-.046 0-4.676 2.002-9.116 5.495-12.2 5.955-5.292 15.416-5.357 21.482.028 3.474 3.023 5.467 7.464 5.467 12.177 0 8.978-7.267 16.286-16.199 16.286zm13.705-37.671c-4.082-2.641-8.808-4.114-13.7-4.114-4.915 0-9.659 1.473-13.741 4.109-4.487-3.958-7.11-9.623-7.11-15.702 0-4.722 1.624-9.379 4.556-13.088 5.219-6.498 13.778-9.406 22.107-7.018.009.005.018.009.032.014.005 0 .005.005.009.005 8.826 2.545 14.988 10.801 14.988 20.083.001 6.089-2.636 11.763-7.141 15.711z"/></g></g></svg>