<svg id="svg8" height="512" viewBox="0 0 16.933333 16.933333" width="512" xmlns="http://www.w3.org/2000/svg" xmlns:svg="http://www.w3.org/2000/svg"><g id="layer2"><path id="path5447" d="m10.794638 1.0583181c-.16877 0-.31575.07586-.40255.185518-.0768.097-.12321.243609-.0605.4252989 0 0 .50747 1.08664.50747 1.24178.91651.00018 1.78547.00017 2.6634 0 0-.15514.50746-1.24178.50746-1.24178.0627-.18169.0163-.328299-.0605-.425299-.0868-.109659-.23379-.185518-.40256-.185518zm-5.2415392 1.4221369-.92604.8847001c-.0487.0471-.1135798.0738-.1813798.0744h-1.8029901v1.6603699c-.0005292.0678-.0273.1326801-.0744.1813801l-.88263.92604.88263.9234599c.0472.0488.0739.1139999.0744.1819v1.4179998h1.8029901c.0675.0002.1323797.0259.1813798.0724l.92604.8846998.9234601-.8846996c.0495-.0469.1152499-.0728.18345-.0724h1.8029898v-1.418c.0005292-.0679.0272-.1331.0744-.1819l.8826302-.92346-.8826301-.92604c-.0471-.0487-.0738-.1135801-.0744-.1813801v-1.6603699h-1.80247c-.0686.00001-.13467-.0267-.1839699-.0744zm5.2906392.9586c-.15115 0-.26355.12219-.26355.26458 0 .14238.1124.26458.26355.26458h2.64686c.15115 0 .26407-.1196301.26407-.26458 0-.14496-.11292-.26458-.26407-.26458zm2.97759.9844301c-.10121.0465-.21255.0739-.33073.0739h-2.64686c-.11793 0-.22923-.0272-.33022-.0734-.24298.3724-.5918193.7599701-.9477391 1.16944l.4108299.42994c.0976.1022501.0976.2631101 0 .36536l-.98444 1.0314601v1.5740599c.0005556.1469304-.11869.2661804-.26562.2656204h-.7746301c.0408.45092.1566302.8427505.3348702 1.1854605.26163-.0749.54532-.1266.85369-.12661.4262699-.000021.7284399.073.9436101.14469.215169.0718.304459.11886.380859.11886h.79323c.58174 0 1.05834.47126 1.05834 1.058849 0 .1942-.0561.37323-.14677.52917h.34985l3.12126-1.505859c.11181-.054.22606-.0824.34106-.0894.27417-.46406.41858-1.0309704.41858-1.7094509 0-1.02307-.51057-1.8869398-1.11931-2.6582399-.51438-.65173-1.10431-1.2391399-1.45986-1.7838699zm-9.8562392.0729h.2656101c.43516 0 .79272.3529.79272.7953v.26148c0 .4413602-.3575701.7963302-.79272.7963302-.1363601-.005-.4896-.016499-.5302001.2604497v.2697501c0 .1511599.1206601.2635502.26459.2635502h.7927101c.35286 0 .35286.5291698 0 .5291698h-.7927101c-.43516 0-.7937499-.3523901-.7937499-.79272v-.2697503s-.005-.2199499.14934-.43356c.1798399-.2436698.4791601-.3756498.91002-.3560498.1418699 0 .2635499-.11601.2635499-.2671701v-.26148c0-.14092-.1123799-.2650998-.2635499-.2650998h-.2656101c-.1511499 0-.2635499.1201499-.2635499.2650998 0 .3528602-.52969.3528602-.52969 0 0-.44239.3580799-.7953.7932399-.7952998zm2.38073 0h1.32447c.35287 0 .35287.52968 0 .52968h-1.05885v.5296799h.52916c.4439301 0 .7932401.3591103.7932401.7942702v.5296799c0 .44136-.3580802.79272-.7932401.79272h-.2656099c-.4351599 0-.79272-.35033-.79272-.79272 0-.3528599.5291699-.3528599.5291699 0 0 .1511501.12066.2635502.2635501.2635502h.2656099c.1511602 0 .2635501-.1211803.2635501-.2635502v-.5296801c0-.1511401-.1196199-.2651001-.2635501-.2651001h-.79478c-.1453999-.0005291-.26357-.11866-.26407-.26407v-1.0583299c-.0005292-.1461701.1179001-.2656102.26407-.2661299zm5.8161792 1.0598799c.14923-.003.27187.11483.26975.26407v.2650998h.26355c.4454 0 .7953.3586001.7953.79375 0 .35287-.52968.35287-.52968 0 0-.1511599-.12323-.2635498-.26562-.2635498h-.26355v.7927099h.26355c.44653 0 .7953.3560101.7953.79117v.26768c0 .4454901-.36013.7932396-.7953.7932396h-.26355v.26923c0 .35286-.52916.35286-.52916 0v-.26923h-.26355c-.43516 0-.7953-.3477495-.7953-.7932396 0-.35287.52916-.35287.52916 0 0 .1439101.11498.26407.26614.26407h.26355v-.7937499h-.26355c-.4455 0-.79479-.3616899-.79479-.7968501v-.2614801c0-.4351599.35033-.79375.79479-.79375h.26355v-.2650998c-.002-.14542.114-.2610701.25941-.26407zm-.52296 1.05937c-.14289 0-.26562.1124-.26562.2635498v.2614801c0 .1449501.11446.26768.26562.26768h.26355v-.7927099zm-6.086449.5276101c.1461299 0 .2645799.1184597.2645799.2645899 0 .1461199-.11845.2645799-.2645799.2645799-.1461201 0-.2645902-.11846-.2645902-.2645799 0-.1461302.1184701-.2645899.2645902-.2645899zm6.879159.7942699v.7937499h.26355c.15115 0 .26562-.1201599.26562-.26407v-.26768c0-.1449499-.11446-.2619999-.26562-.2619999zm-4.5697392 3.22926c-.3808399.17341-.70245.37597-1.03301.46457-.022199.006-.0456.01-.0687.01h-.1452199l-.0005027 3.70417h.6754101c.1117801 0 .3220899.017.6500899.0419.32799.0249.7505301.059 1.19527.092.8894798.066 1.8798188.13074 2.3869388.13074.2475 0 .67932-.20841 1.156-.54312.49187-.34538 1.0446-.80683 1.55494-1.27331 1.02069-.93295 1.88464-1.8712 1.88464-1.8712.13773-.13773.22344-.2583.25994-.3514s.0339-.16488 0-.24598c-.0787-.18797-.29681-.28488-.50592-.18397l-3.17603 1.53169c-.0358.0174-.0752.0271-.11524.0274-1.058187.000047-2.115735-.000529-3.1738592-.000529-.35287 0-.35287-.52916 0-.52916h1.8515592c.29773 0 .52917-.23729.52917-.52917 0-.29189-.23144-.52917-.52917-.52917h-.79323c-.19362 0-.36504-.0862-.5467393-.14676-.18161-.0606-.4100701-.11725-.7775385-.117421-.4749485-.00002-.8980884.14537-1.2787984.31872zm-7.06726992-.05426c-.14384999 0-.26562999.11342-.26561999.26458l.00052 4.23437c.00001.14185.11394.26355.26509999.26355h5.02500992c.1511501 0 .26508-.1217.2651001-.26355l.0005199-4.23437c.0000201-.15116-.12177-.26458-.26562-.26458z" font-variant-ligatures="normal" font-variant-position="normal" font-variant-caps="normal" font-variant-numeric="normal" font-variant-alternates="normal" font-feature-settings="normal" text-indent="0" text-align="start" text-decoration-line="none" text-decoration-style="solid" text-decoration-color="rgb(0,0,0)" text-transform="none" text-orientation="mixed" white-space="normal" shape-padding="0" isolation="auto" mix-blend-mode="normal" solid-color="rgb(0,0,0)" solid-opacity="1" vector-effect="none"/></g></svg>